<mxfile host="65bd71144e" pages="11">
    <diagram id="E-jX0eEFrdNvrJAPAvHi" name="RideSchema">
        <mxGraphModel dx="2689" dy="3986" grid="1" gridSize="10" guides="1" tooltips="1" connect="1" arrows="1" fold="1" page="0" pageScale="1" pageWidth="850" pageHeight="1100" math="0" shadow="0">
            <root>
                <mxCell id="0"/>
                <mxCell id="1" parent="0"/>
                <mxCell id="2IO1VP2Vq1PEebqT6ruY-69" value="" style="group" parent="1" vertex="1" connectable="0">
                    <mxGeometry x="-1090" y="-3120" width="245" height="170" as="geometry"/>
                </mxCell>
                <mxCell id="2IO1VP2Vq1PEebqT6ruY-70" value="&lt;span style=&quot;text-align: left; text-decoration-line: underline;&quot;&gt;RideEvent&lt;/span&gt;" style="shape=table;startSize=30;container=1;collapsible=1;childLayout=tableLayout;fixedRows=1;rowLines=0;fontStyle=1;align=center;resizeLast=1;labelBackgroundColor=none;html=1;rounded=1;shadow=1;fillColor=#003366;" parent="2IO1VP2Vq1PEebqT6ruY-69" vertex="1">
                    <mxGeometry y="7.846153846153847" width="240" height="160" as="geometry">
                        <mxRectangle y="15" width="60" height="30" as="alternateBounds"/>
                    </mxGeometry>
                </mxCell>
                <mxCell id="2IO1VP2Vq1PEebqT6ruY-71" value="" style="shape=partialRectangle;collapsible=0;dropTarget=0;pointerEvents=0;fillColor=none;top=0;left=0;bottom=1;right=0;points=[[0,0.5],[1,0.5]];portConstraint=eastwest;" parent="2IO1VP2Vq1PEebqT6ruY-70" vertex="1">
                    <mxGeometry y="30" width="240" height="20" as="geometry"/>
                </mxCell>
                <mxCell id="2IO1VP2Vq1PEebqT6ruY-72" value="PK" style="shape=partialRectangle;connectable=0;fillColor=none;top=0;left=0;bottom=0;right=0;fontStyle=1;overflow=hidden;" parent="2IO1VP2Vq1PEebqT6ruY-71" vertex="1">
                    <mxGeometry width="30" height="20" as="geometry">
                        <mxRectangle width="30" height="20" as="alternateBounds"/>
                    </mxGeometry>
                </mxCell>
                <mxCell id="2IO1VP2Vq1PEebqT6ruY-73" value="id_ride_event" style="shape=partialRectangle;connectable=0;fillColor=none;top=0;left=0;bottom=0;right=0;align=left;spacingLeft=6;fontStyle=5;overflow=hidden;" parent="2IO1VP2Vq1PEebqT6ruY-71" vertex="1">
                    <mxGeometry x="30" width="150" height="20" as="geometry">
                        <mxRectangle width="150" height="20" as="alternateBounds"/>
                    </mxGeometry>
                </mxCell>
                <mxCell id="2IO1VP2Vq1PEebqT6ruY-74" value="" style="shape=partialRectangle;connectable=0;fillColor=none;top=0;left=0;bottom=0;right=0;align=left;spacingLeft=6;fontStyle=5;overflow=hidden;" parent="2IO1VP2Vq1PEebqT6ruY-71" vertex="1">
                    <mxGeometry x="180" width="60" height="20" as="geometry">
                        <mxRectangle width="60" height="20" as="alternateBounds"/>
                    </mxGeometry>
                </mxCell>
                <mxCell id="2IO1VP2Vq1PEebqT6ruY-75" value="" style="shape=partialRectangle;collapsible=0;dropTarget=0;pointerEvents=0;fillColor=none;top=0;left=0;bottom=1;right=0;points=[[0,0.5],[1,0.5]];portConstraint=eastwest;" parent="2IO1VP2Vq1PEebqT6ruY-70" vertex="1">
                    <mxGeometry y="50" width="240" height="20" as="geometry"/>
                </mxCell>
                <mxCell id="2IO1VP2Vq1PEebqT6ruY-76" value="PK" style="shape=partialRectangle;connectable=0;fillColor=none;top=0;left=0;bottom=0;right=0;fontStyle=1;overflow=hidden;" parent="2IO1VP2Vq1PEebqT6ruY-75" vertex="1">
                    <mxGeometry width="30" height="20" as="geometry">
                        <mxRectangle width="30" height="20" as="alternateBounds"/>
                    </mxGeometry>
                </mxCell>
                <mxCell id="2IO1VP2Vq1PEebqT6ruY-77" value="" style="shape=partialRectangle;connectable=0;fillColor=none;top=0;left=0;bottom=0;right=0;align=left;spacingLeft=6;fontStyle=5;overflow=hidden;" parent="2IO1VP2Vq1PEebqT6ruY-75" vertex="1">
                    <mxGeometry x="30" width="150" height="20" as="geometry">
                        <mxRectangle width="150" height="20" as="alternateBounds"/>
                    </mxGeometry>
                </mxCell>
                <mxCell id="2IO1VP2Vq1PEebqT6ruY-78" value="" style="shape=partialRectangle;connectable=0;fillColor=none;top=0;left=0;bottom=0;right=0;align=left;spacingLeft=6;fontStyle=5;overflow=hidden;" parent="2IO1VP2Vq1PEebqT6ruY-75" vertex="1">
                    <mxGeometry x="180" width="60" height="20" as="geometry">
                        <mxRectangle width="60" height="20" as="alternateBounds"/>
                    </mxGeometry>
                </mxCell>
                <mxCell id="2IO1VP2Vq1PEebqT6ruY-79" value="" style="shape=partialRectangle;collapsible=0;dropTarget=0;pointerEvents=0;fillColor=none;top=0;left=0;bottom=0;right=0;points=[[0,0.5],[1,0.5]];portConstraint=eastwest;" parent="2IO1VP2Vq1PEebqT6ruY-70" vertex="1">
                    <mxGeometry y="70" width="240" height="30" as="geometry"/>
                </mxCell>
                <mxCell id="2IO1VP2Vq1PEebqT6ruY-80" value="FK" style="shape=partialRectangle;connectable=0;fillColor=none;top=0;left=0;bottom=0;right=0;editable=1;overflow=hidden;" parent="2IO1VP2Vq1PEebqT6ruY-79" vertex="1">
                    <mxGeometry width="30" height="30" as="geometry">
                        <mxRectangle width="30" height="30" as="alternateBounds"/>
                    </mxGeometry>
                </mxCell>
                <mxCell id="2IO1VP2Vq1PEebqT6ruY-81" value="id_ride" style="shape=partialRectangle;connectable=0;fillColor=none;top=0;left=0;bottom=0;right=0;align=left;spacingLeft=6;overflow=hidden;" parent="2IO1VP2Vq1PEebqT6ruY-79" vertex="1">
                    <mxGeometry x="30" width="150" height="30" as="geometry">
                        <mxRectangle width="150" height="30" as="alternateBounds"/>
                    </mxGeometry>
                </mxCell>
                <mxCell id="2IO1VP2Vq1PEebqT6ruY-82" value="int" style="shape=partialRectangle;connectable=0;fillColor=none;top=0;left=0;bottom=0;right=0;align=left;spacingLeft=6;overflow=hidden;" parent="2IO1VP2Vq1PEebqT6ruY-79" vertex="1">
                    <mxGeometry x="180" width="60" height="30" as="geometry">
                        <mxRectangle width="60" height="30" as="alternateBounds"/>
                    </mxGeometry>
                </mxCell>
                <mxCell id="2IO1VP2Vq1PEebqT6ruY-83" value="" style="shape=partialRectangle;collapsible=0;dropTarget=0;pointerEvents=0;fillColor=none;top=0;left=0;bottom=0;right=0;points=[[0,0.5],[1,0.5]];portConstraint=eastwest;" parent="2IO1VP2Vq1PEebqT6ruY-70" vertex="1">
                    <mxGeometry y="100" width="240" height="30" as="geometry"/>
                </mxCell>
                <mxCell id="2IO1VP2Vq1PEebqT6ruY-84" value="" style="shape=partialRectangle;connectable=0;fillColor=none;top=0;left=0;bottom=0;right=0;editable=1;overflow=hidden;" parent="2IO1VP2Vq1PEebqT6ruY-83" vertex="1">
                    <mxGeometry width="30" height="30" as="geometry">
                        <mxRectangle width="30" height="30" as="alternateBounds"/>
                    </mxGeometry>
                </mxCell>
                <mxCell id="2IO1VP2Vq1PEebqT6ruY-85" value="description" style="shape=partialRectangle;connectable=0;fillColor=none;top=0;left=0;bottom=0;right=0;align=left;spacingLeft=6;overflow=hidden;" parent="2IO1VP2Vq1PEebqT6ruY-83" vertex="1">
                    <mxGeometry x="30" width="150" height="30" as="geometry">
                        <mxRectangle width="150" height="30" as="alternateBounds"/>
                    </mxGeometry>
                </mxCell>
                <mxCell id="2IO1VP2Vq1PEebqT6ruY-86" value="char" style="shape=partialRectangle;connectable=0;fillColor=none;top=0;left=0;bottom=0;right=0;align=left;spacingLeft=6;overflow=hidden;" parent="2IO1VP2Vq1PEebqT6ruY-83" vertex="1">
                    <mxGeometry x="180" width="60" height="30" as="geometry">
                        <mxRectangle width="60" height="30" as="alternateBounds"/>
                    </mxGeometry>
                </mxCell>
                <mxCell id="2IO1VP2Vq1PEebqT6ruY-103" value="" style="shape=partialRectangle;collapsible=0;dropTarget=0;pointerEvents=0;fillColor=none;top=0;left=0;bottom=0;right=0;points=[[0,0.5],[1,0.5]];portConstraint=eastwest;" parent="2IO1VP2Vq1PEebqT6ruY-70" vertex="1">
                    <mxGeometry y="130" width="240" height="30" as="geometry"/>
                </mxCell>
                <mxCell id="2IO1VP2Vq1PEebqT6ruY-104" value="" style="shape=partialRectangle;connectable=0;fillColor=none;top=0;left=0;bottom=0;right=0;editable=1;overflow=hidden;fontStyle=0" parent="2IO1VP2Vq1PEebqT6ruY-103" vertex="1">
                    <mxGeometry width="30" height="30" as="geometry">
                        <mxRectangle width="30" height="30" as="alternateBounds"/>
                    </mxGeometry>
                </mxCell>
                <mxCell id="2IO1VP2Vq1PEebqT6ruY-105" value="created_at" style="shape=partialRectangle;connectable=0;fillColor=none;top=0;left=0;bottom=0;right=0;align=left;spacingLeft=6;overflow=hidden;" parent="2IO1VP2Vq1PEebqT6ruY-103" vertex="1">
                    <mxGeometry x="30" width="150" height="30" as="geometry">
                        <mxRectangle width="150" height="30" as="alternateBounds"/>
                    </mxGeometry>
                </mxCell>
                <mxCell id="2IO1VP2Vq1PEebqT6ruY-106" value="date/time" style="shape=partialRectangle;connectable=0;fillColor=none;top=0;left=0;bottom=0;right=0;align=left;spacingLeft=6;overflow=hidden;" parent="2IO1VP2Vq1PEebqT6ruY-103" vertex="1">
                    <mxGeometry x="180" width="60" height="30" as="geometry">
                        <mxRectangle width="60" height="30" as="alternateBounds"/>
                    </mxGeometry>
                </mxCell>
                <mxCell id="2IO1VP2Vq1PEebqT6ruY-252" value="" style="group" parent="1" vertex="1" connectable="0">
                    <mxGeometry x="-1450" y="-3030" width="239" height="340" as="geometry"/>
                </mxCell>
                <mxCell id="2IO1VP2Vq1PEebqT6ruY-253" value="&lt;font style=&quot;background-color: rgb(102, 102, 0);&quot; color=&quot;#ffffff&quot;&gt;Ride&lt;/font&gt;" style="shape=table;startSize=30;container=1;collapsible=1;childLayout=tableLayout;fixedRows=1;rowLines=0;fontStyle=1;align=center;resizeLast=1;labelBackgroundColor=none;html=1;rounded=1;shadow=1;fillColor=#666600;" parent="2IO1VP2Vq1PEebqT6ruY-252" vertex="1">
                    <mxGeometry y="5.859838039920958" width="239" height="330" as="geometry">
                        <mxRectangle x="80" y="410" width="60" height="30" as="alternateBounds"/>
                    </mxGeometry>
                </mxCell>
                <mxCell id="2IO1VP2Vq1PEebqT6ruY-254" value="" style="shape=partialRectangle;collapsible=0;dropTarget=0;pointerEvents=0;fillColor=none;top=0;left=0;bottom=1;right=0;points=[[0,0.5],[1,0.5]];portConstraint=eastwest;" parent="2IO1VP2Vq1PEebqT6ruY-253" vertex="1">
                    <mxGeometry y="30" width="239" height="30" as="geometry"/>
                </mxCell>
                <mxCell id="2IO1VP2Vq1PEebqT6ruY-255" value="PK" style="shape=partialRectangle;connectable=0;fillColor=none;top=0;left=0;bottom=0;right=0;fontStyle=1;overflow=hidden;" parent="2IO1VP2Vq1PEebqT6ruY-254" vertex="1">
                    <mxGeometry width="30" height="30" as="geometry">
                        <mxRectangle width="30" height="30" as="alternateBounds"/>
                    </mxGeometry>
                </mxCell>
                <mxCell id="2IO1VP2Vq1PEebqT6ruY-256" value="id_ride" style="shape=partialRectangle;connectable=0;fillColor=none;top=0;left=0;bottom=0;right=0;align=left;spacingLeft=6;fontStyle=5;overflow=hidden;" parent="2IO1VP2Vq1PEebqT6ruY-254" vertex="1">
                    <mxGeometry x="30" width="150" height="30" as="geometry">
                        <mxRectangle width="150" height="30" as="alternateBounds"/>
                    </mxGeometry>
                </mxCell>
                <mxCell id="2IO1VP2Vq1PEebqT6ruY-257" value="" style="shape=partialRectangle;connectable=0;fillColor=none;top=0;left=0;bottom=0;right=0;align=left;spacingLeft=6;fontStyle=5;overflow=hidden;" parent="2IO1VP2Vq1PEebqT6ruY-254" vertex="1">
                    <mxGeometry x="180" width="59" height="30" as="geometry">
                        <mxRectangle width="59" height="30" as="alternateBounds"/>
                    </mxGeometry>
                </mxCell>
                <mxCell id="LPdrhMW7AzziEGGQ__64-75" value="" style="shape=partialRectangle;collapsible=0;dropTarget=0;pointerEvents=0;fillColor=none;top=0;left=0;bottom=0;right=0;points=[[0,0.5],[1,0.5]];portConstraint=eastwest;" parent="2IO1VP2Vq1PEebqT6ruY-253" vertex="1">
                    <mxGeometry y="60" width="239" height="30" as="geometry"/>
                </mxCell>
                <mxCell id="LPdrhMW7AzziEGGQ__64-76" value="" style="shape=partialRectangle;connectable=0;fillColor=none;top=0;left=0;bottom=0;right=0;editable=1;overflow=hidden;" parent="LPdrhMW7AzziEGGQ__64-75" vertex="1">
                    <mxGeometry width="30" height="30" as="geometry">
                        <mxRectangle width="30" height="30" as="alternateBounds"/>
                    </mxGeometry>
                </mxCell>
                <mxCell id="LPdrhMW7AzziEGGQ__64-77" value="status" style="shape=partialRectangle;connectable=0;fillColor=none;top=0;left=0;bottom=0;right=0;align=left;spacingLeft=6;overflow=hidden;" parent="LPdrhMW7AzziEGGQ__64-75" vertex="1">
                    <mxGeometry x="30" width="150" height="30" as="geometry">
                        <mxRectangle width="150" height="30" as="alternateBounds"/>
                    </mxGeometry>
                </mxCell>
                <mxCell id="LPdrhMW7AzziEGGQ__64-78" value="char" style="shape=partialRectangle;connectable=0;fillColor=none;top=0;left=0;bottom=0;right=0;align=left;spacingLeft=6;overflow=hidden;fontSize=12;" parent="LPdrhMW7AzziEGGQ__64-75" vertex="1">
                    <mxGeometry x="180" width="59" height="30" as="geometry">
                        <mxRectangle width="59" height="30" as="alternateBounds"/>
                    </mxGeometry>
                </mxCell>
                <mxCell id="2IO1VP2Vq1PEebqT6ruY-262" value="" style="shape=partialRectangle;collapsible=0;dropTarget=0;pointerEvents=0;fillColor=none;top=0;left=0;bottom=0;right=0;points=[[0,0.5],[1,0.5]];portConstraint=eastwest;" parent="2IO1VP2Vq1PEebqT6ruY-253" vertex="1">
                    <mxGeometry y="90" width="239" height="30" as="geometry"/>
                </mxCell>
                <mxCell id="2IO1VP2Vq1PEebqT6ruY-263" value="FK" style="shape=partialRectangle;connectable=0;fillColor=none;top=0;left=0;bottom=0;right=0;editable=1;overflow=hidden;" parent="2IO1VP2Vq1PEebqT6ruY-262" vertex="1">
                    <mxGeometry width="30" height="30" as="geometry">
                        <mxRectangle width="30" height="30" as="alternateBounds"/>
                    </mxGeometry>
                </mxCell>
                <mxCell id="2IO1VP2Vq1PEebqT6ruY-264" value="id_rider" style="shape=partialRectangle;connectable=0;fillColor=none;top=0;left=0;bottom=0;right=0;align=left;spacingLeft=6;overflow=hidden;" parent="2IO1VP2Vq1PEebqT6ruY-262" vertex="1">
                    <mxGeometry x="30" width="150" height="30" as="geometry">
                        <mxRectangle width="150" height="30" as="alternateBounds"/>
                    </mxGeometry>
                </mxCell>
                <mxCell id="2IO1VP2Vq1PEebqT6ruY-265" value="int" style="shape=partialRectangle;connectable=0;fillColor=none;top=0;left=0;bottom=0;right=0;align=left;spacingLeft=6;overflow=hidden;fontSize=12;" parent="2IO1VP2Vq1PEebqT6ruY-262" vertex="1">
                    <mxGeometry x="180" width="59" height="30" as="geometry">
                        <mxRectangle width="59" height="30" as="alternateBounds"/>
                    </mxGeometry>
                </mxCell>
                <mxCell id="2IO1VP2Vq1PEebqT6ruY-266" value="" style="shape=partialRectangle;collapsible=0;dropTarget=0;pointerEvents=0;fillColor=none;top=0;left=0;bottom=0;right=0;points=[[0,0.5],[1,0.5]];portConstraint=eastwest;" parent="2IO1VP2Vq1PEebqT6ruY-253" vertex="1">
                    <mxGeometry y="120" width="239" height="30" as="geometry"/>
                </mxCell>
                <mxCell id="2IO1VP2Vq1PEebqT6ruY-267" value="FK" style="shape=partialRectangle;connectable=0;fillColor=none;top=0;left=0;bottom=0;right=0;editable=1;overflow=hidden;" parent="2IO1VP2Vq1PEebqT6ruY-266" vertex="1">
                    <mxGeometry width="30" height="30" as="geometry">
                        <mxRectangle width="30" height="30" as="alternateBounds"/>
                    </mxGeometry>
                </mxCell>
                <mxCell id="2IO1VP2Vq1PEebqT6ruY-268" value="id_driver" style="shape=partialRectangle;connectable=0;fillColor=none;top=0;left=0;bottom=0;right=0;align=left;spacingLeft=6;overflow=hidden;" parent="2IO1VP2Vq1PEebqT6ruY-266" vertex="1">
                    <mxGeometry x="30" width="150" height="30" as="geometry">
                        <mxRectangle width="150" height="30" as="alternateBounds"/>
                    </mxGeometry>
                </mxCell>
                <mxCell id="2IO1VP2Vq1PEebqT6ruY-269" value="int" style="shape=partialRectangle;connectable=0;fillColor=none;top=0;left=0;bottom=0;right=0;align=left;spacingLeft=6;overflow=hidden;" parent="2IO1VP2Vq1PEebqT6ruY-266" vertex="1">
                    <mxGeometry x="180" width="59" height="30" as="geometry">
                        <mxRectangle width="59" height="30" as="alternateBounds"/>
                    </mxGeometry>
                </mxCell>
                <mxCell id="2IO1VP2Vq1PEebqT6ruY-270" value="" style="shape=partialRectangle;collapsible=0;dropTarget=0;pointerEvents=0;fillColor=none;top=0;left=0;bottom=0;right=0;points=[[0,0.5],[1,0.5]];portConstraint=eastwest;" parent="2IO1VP2Vq1PEebqT6ruY-253" vertex="1">
                    <mxGeometry y="150" width="239" height="30" as="geometry"/>
                </mxCell>
                <mxCell id="2IO1VP2Vq1PEebqT6ruY-271" value="" style="shape=partialRectangle;connectable=0;fillColor=none;top=0;left=0;bottom=0;right=0;editable=1;overflow=hidden;" parent="2IO1VP2Vq1PEebqT6ruY-270" vertex="1">
                    <mxGeometry width="30" height="30" as="geometry">
                        <mxRectangle width="30" height="30" as="alternateBounds"/>
                    </mxGeometry>
                </mxCell>
                <mxCell id="2IO1VP2Vq1PEebqT6ruY-272" value="pickup_latitude" style="shape=partialRectangle;connectable=0;fillColor=none;top=0;left=0;bottom=0;right=0;align=left;spacingLeft=6;overflow=hidden;" parent="2IO1VP2Vq1PEebqT6ruY-270" vertex="1">
                    <mxGeometry x="30" width="150" height="30" as="geometry">
                        <mxRectangle width="150" height="30" as="alternateBounds"/>
                    </mxGeometry>
                </mxCell>
                <mxCell id="2IO1VP2Vq1PEebqT6ruY-273" value="float" style="shape=partialRectangle;connectable=0;fillColor=none;top=0;left=0;bottom=0;right=0;align=left;spacingLeft=6;overflow=hidden;" parent="2IO1VP2Vq1PEebqT6ruY-270" vertex="1">
                    <mxGeometry x="180" width="59" height="30" as="geometry">
                        <mxRectangle width="59" height="30" as="alternateBounds"/>
                    </mxGeometry>
                </mxCell>
                <mxCell id="2IO1VP2Vq1PEebqT6ruY-274" value="" style="shape=partialRectangle;collapsible=0;dropTarget=0;pointerEvents=0;fillColor=none;top=0;left=0;bottom=0;right=0;points=[[0,0.5],[1,0.5]];portConstraint=eastwest;" parent="2IO1VP2Vq1PEebqT6ruY-253" vertex="1">
                    <mxGeometry y="180" width="239" height="30" as="geometry"/>
                </mxCell>
                <mxCell id="2IO1VP2Vq1PEebqT6ruY-275" value="" style="shape=partialRectangle;connectable=0;fillColor=none;top=0;left=0;bottom=0;right=0;editable=1;overflow=hidden;" parent="2IO1VP2Vq1PEebqT6ruY-274" vertex="1">
                    <mxGeometry width="30" height="30" as="geometry">
                        <mxRectangle width="30" height="30" as="alternateBounds"/>
                    </mxGeometry>
                </mxCell>
                <mxCell id="2IO1VP2Vq1PEebqT6ruY-276" value="pickup_longitude" style="shape=partialRectangle;connectable=0;fillColor=none;top=0;left=0;bottom=0;right=0;align=left;spacingLeft=6;overflow=hidden;" parent="2IO1VP2Vq1PEebqT6ruY-274" vertex="1">
                    <mxGeometry x="30" width="150" height="30" as="geometry">
                        <mxRectangle width="150" height="30" as="alternateBounds"/>
                    </mxGeometry>
                </mxCell>
                <mxCell id="2IO1VP2Vq1PEebqT6ruY-277" value="float" style="shape=partialRectangle;connectable=0;fillColor=none;top=0;left=0;bottom=0;right=0;align=left;spacingLeft=6;overflow=hidden;" parent="2IO1VP2Vq1PEebqT6ruY-274" vertex="1">
                    <mxGeometry x="180" width="59" height="30" as="geometry">
                        <mxRectangle width="59" height="30" as="alternateBounds"/>
                    </mxGeometry>
                </mxCell>
                <mxCell id="2IO1VP2Vq1PEebqT6ruY-278" value="" style="shape=partialRectangle;collapsible=0;dropTarget=0;pointerEvents=0;fillColor=none;top=0;left=0;bottom=0;right=0;points=[[0,0.5],[1,0.5]];portConstraint=eastwest;" parent="2IO1VP2Vq1PEebqT6ruY-253" vertex="1">
                    <mxGeometry y="210" width="239" height="30" as="geometry"/>
                </mxCell>
                <mxCell id="2IO1VP2Vq1PEebqT6ruY-279" value="" style="shape=partialRectangle;connectable=0;fillColor=none;top=0;left=0;bottom=0;right=0;editable=1;overflow=hidden;" parent="2IO1VP2Vq1PEebqT6ruY-278" vertex="1">
                    <mxGeometry width="30" height="30" as="geometry">
                        <mxRectangle width="30" height="30" as="alternateBounds"/>
                    </mxGeometry>
                </mxCell>
                <mxCell id="2IO1VP2Vq1PEebqT6ruY-280" value="dropoff_latitude" style="shape=partialRectangle;connectable=0;fillColor=none;top=0;left=0;bottom=0;right=0;align=left;spacingLeft=6;overflow=hidden;" parent="2IO1VP2Vq1PEebqT6ruY-278" vertex="1">
                    <mxGeometry x="30" width="150" height="30" as="geometry">
                        <mxRectangle width="150" height="30" as="alternateBounds"/>
                    </mxGeometry>
                </mxCell>
                <mxCell id="2IO1VP2Vq1PEebqT6ruY-281" value="float" style="shape=partialRectangle;connectable=0;fillColor=none;top=0;left=0;bottom=0;right=0;align=left;spacingLeft=6;overflow=hidden;" parent="2IO1VP2Vq1PEebqT6ruY-278" vertex="1">
                    <mxGeometry x="180" width="59" height="30" as="geometry">
                        <mxRectangle width="59" height="30" as="alternateBounds"/>
                    </mxGeometry>
                </mxCell>
                <mxCell id="2IO1VP2Vq1PEebqT6ruY-282" value="" style="shape=partialRectangle;collapsible=0;dropTarget=0;pointerEvents=0;fillColor=none;top=0;left=0;bottom=0;right=0;points=[[0,0.5],[1,0.5]];portConstraint=eastwest;" parent="2IO1VP2Vq1PEebqT6ruY-253" vertex="1">
                    <mxGeometry y="240" width="239" height="30" as="geometry"/>
                </mxCell>
                <mxCell id="2IO1VP2Vq1PEebqT6ruY-283" value="" style="shape=partialRectangle;connectable=0;fillColor=none;top=0;left=0;bottom=0;right=0;editable=1;overflow=hidden;" parent="2IO1VP2Vq1PEebqT6ruY-282" vertex="1">
                    <mxGeometry width="30" height="30" as="geometry">
                        <mxRectangle width="30" height="30" as="alternateBounds"/>
                    </mxGeometry>
                </mxCell>
                <mxCell id="2IO1VP2Vq1PEebqT6ruY-284" value="dropoff_longitude" style="shape=partialRectangle;connectable=0;fillColor=none;top=0;left=0;bottom=0;right=0;align=left;spacingLeft=6;overflow=hidden;" parent="2IO1VP2Vq1PEebqT6ruY-282" vertex="1">
                    <mxGeometry x="30" width="150" height="30" as="geometry">
                        <mxRectangle width="150" height="30" as="alternateBounds"/>
                    </mxGeometry>
                </mxCell>
                <mxCell id="2IO1VP2Vq1PEebqT6ruY-285" value="float" style="shape=partialRectangle;connectable=0;fillColor=none;top=0;left=0;bottom=0;right=0;align=left;spacingLeft=6;overflow=hidden;" parent="2IO1VP2Vq1PEebqT6ruY-282" vertex="1">
                    <mxGeometry x="180" width="59" height="30" as="geometry">
                        <mxRectangle width="59" height="30" as="alternateBounds"/>
                    </mxGeometry>
                </mxCell>
                <mxCell id="2IO1VP2Vq1PEebqT6ruY-286" value="" style="shape=partialRectangle;collapsible=0;dropTarget=0;pointerEvents=0;fillColor=none;top=0;left=0;bottom=0;right=0;points=[[0,0.5],[1,0.5]];portConstraint=eastwest;" parent="2IO1VP2Vq1PEebqT6ruY-253" vertex="1">
                    <mxGeometry y="270" width="239" height="30" as="geometry"/>
                </mxCell>
                <mxCell id="2IO1VP2Vq1PEebqT6ruY-287" value="" style="shape=partialRectangle;connectable=0;fillColor=none;top=0;left=0;bottom=0;right=0;editable=1;overflow=hidden;" parent="2IO1VP2Vq1PEebqT6ruY-286" vertex="1">
                    <mxGeometry width="30" height="30" as="geometry">
                        <mxRectangle width="30" height="30" as="alternateBounds"/>
                    </mxGeometry>
                </mxCell>
                <mxCell id="2IO1VP2Vq1PEebqT6ruY-288" value="pickup_time" style="shape=partialRectangle;connectable=0;fillColor=none;top=0;left=0;bottom=0;right=0;align=left;spacingLeft=6;overflow=hidden;" parent="2IO1VP2Vq1PEebqT6ruY-286" vertex="1">
                    <mxGeometry x="30" width="150" height="30" as="geometry">
                        <mxRectangle width="150" height="30" as="alternateBounds"/>
                    </mxGeometry>
                </mxCell>
                <mxCell id="2IO1VP2Vq1PEebqT6ruY-289" value="date/time" style="shape=partialRectangle;connectable=0;fillColor=none;top=0;left=0;bottom=0;right=0;align=left;spacingLeft=6;overflow=hidden;" parent="2IO1VP2Vq1PEebqT6ruY-286" vertex="1">
                    <mxGeometry x="180" width="59" height="30" as="geometry">
                        <mxRectangle width="59" height="30" as="alternateBounds"/>
                    </mxGeometry>
                </mxCell>
                <mxCell id="2IO1VP2Vq1PEebqT6ruY-322" value="" style="shape=partialRectangle;collapsible=0;dropTarget=0;pointerEvents=0;fillColor=none;top=0;left=0;bottom=0;right=0;points=[[0,0.5],[1,0.5]];portConstraint=eastwest;" parent="2IO1VP2Vq1PEebqT6ruY-253" vertex="1">
                    <mxGeometry y="300" width="239" height="30" as="geometry"/>
                </mxCell>
                <mxCell id="2IO1VP2Vq1PEebqT6ruY-323" value="" style="shape=partialRectangle;connectable=0;fillColor=none;top=0;left=0;bottom=0;right=0;editable=1;overflow=hidden;" parent="2IO1VP2Vq1PEebqT6ruY-322" vertex="1">
                    <mxGeometry width="30" height="30" as="geometry">
                        <mxRectangle width="30" height="30" as="alternateBounds"/>
                    </mxGeometry>
                </mxCell>
                <mxCell id="2IO1VP2Vq1PEebqT6ruY-324" value="dropoff_time" style="shape=partialRectangle;connectable=0;fillColor=none;top=0;left=0;bottom=0;right=0;align=left;spacingLeft=6;overflow=hidden;" parent="2IO1VP2Vq1PEebqT6ruY-322" vertex="1">
                    <mxGeometry x="30" width="150" height="30" as="geometry">
                        <mxRectangle width="150" height="30" as="alternateBounds"/>
                    </mxGeometry>
                </mxCell>
                <mxCell id="2IO1VP2Vq1PEebqT6ruY-325" value="date/time" style="shape=partialRectangle;connectable=0;fillColor=none;top=0;left=0;bottom=0;right=0;align=left;spacingLeft=6;overflow=hidden;" parent="2IO1VP2Vq1PEebqT6ruY-322" vertex="1">
                    <mxGeometry x="180" width="59" height="30" as="geometry">
                        <mxRectangle width="59" height="30" as="alternateBounds"/>
                    </mxGeometry>
                </mxCell>
                <mxCell id="2IO1VP2Vq1PEebqT6ruY-361" style="edgeStyle=entityRelationEdgeStyle;rounded=0;orthogonalLoop=1;jettySize=auto;html=1;shadow=0;strokeColor=default;align=center;verticalAlign=middle;fontFamily=Helvetica;fontSize=11;fontColor=default;labelBackgroundColor=default;startArrow=ERmandOne;startFill=0;endArrow=ERoneToMany;endFill=0;flowAnimation=1;" parent="1" source="LPdrhMW7AzziEGGQ__64-2" target="2IO1VP2Vq1PEebqT6ruY-262" edge="1">
                    <mxGeometry relative="1" as="geometry"/>
                </mxCell>
                <mxCell id="LPdrhMW7AzziEGGQ__64-1" value="&lt;font style=&quot;background-color: rgb(77 , 77 , 77)&quot; color=&quot;#ffffff&quot;&gt;User&lt;/font&gt;" style="shape=table;startSize=30;container=1;collapsible=1;childLayout=tableLayout;fixedRows=1;rowLines=0;fontStyle=1;align=center;resizeLast=1;labelBackgroundColor=none;html=1;rounded=1;shadow=1;fillColor=#4D4D4D;" parent="1" vertex="1">
                    <mxGeometry x="-1870" y="-3110" width="240" height="250" as="geometry">
                        <mxRectangle width="60" height="30" as="alternateBounds"/>
                    </mxGeometry>
                </mxCell>
                <mxCell id="LPdrhMW7AzziEGGQ__64-2" value="" style="shape=partialRectangle;collapsible=0;dropTarget=0;pointerEvents=0;fillColor=none;top=0;left=0;bottom=1;right=0;points=[[0,0.5],[1,0.5]];portConstraint=eastwest;" parent="LPdrhMW7AzziEGGQ__64-1" vertex="1">
                    <mxGeometry y="30" width="240" height="20" as="geometry"/>
                </mxCell>
                <mxCell id="LPdrhMW7AzziEGGQ__64-3" value="PK" style="shape=partialRectangle;connectable=0;fillColor=none;top=0;left=0;bottom=0;right=0;fontStyle=1;overflow=hidden;" parent="LPdrhMW7AzziEGGQ__64-2" vertex="1">
                    <mxGeometry width="30" height="20" as="geometry">
                        <mxRectangle width="30" height="20" as="alternateBounds"/>
                    </mxGeometry>
                </mxCell>
                <mxCell id="LPdrhMW7AzziEGGQ__64-4" value="id_user" style="shape=partialRectangle;connectable=0;fillColor=none;top=0;left=0;bottom=0;right=0;align=left;spacingLeft=6;fontStyle=5;overflow=hidden;" parent="LPdrhMW7AzziEGGQ__64-2" vertex="1">
                    <mxGeometry x="30" width="150" height="20" as="geometry">
                        <mxRectangle width="150" height="20" as="alternateBounds"/>
                    </mxGeometry>
                </mxCell>
                <mxCell id="LPdrhMW7AzziEGGQ__64-5" value="" style="shape=partialRectangle;connectable=0;fillColor=none;top=0;left=0;bottom=0;right=0;align=left;spacingLeft=6;fontStyle=5;overflow=hidden;" parent="LPdrhMW7AzziEGGQ__64-2" vertex="1">
                    <mxGeometry x="180" width="60" height="20" as="geometry">
                        <mxRectangle width="60" height="20" as="alternateBounds"/>
                    </mxGeometry>
                </mxCell>
                <mxCell id="LPdrhMW7AzziEGGQ__64-6" value="" style="shape=partialRectangle;collapsible=0;dropTarget=0;pointerEvents=0;fillColor=none;top=0;left=0;bottom=1;right=0;points=[[0,0.5],[1,0.5]];portConstraint=eastwest;" parent="LPdrhMW7AzziEGGQ__64-1" vertex="1">
                    <mxGeometry y="50" width="240" height="20" as="geometry"/>
                </mxCell>
                <mxCell id="LPdrhMW7AzziEGGQ__64-7" value="PK" style="shape=partialRectangle;connectable=0;fillColor=none;top=0;left=0;bottom=0;right=0;fontStyle=1;overflow=hidden;" parent="LPdrhMW7AzziEGGQ__64-6" vertex="1">
                    <mxGeometry width="30" height="20" as="geometry">
                        <mxRectangle width="30" height="20" as="alternateBounds"/>
                    </mxGeometry>
                </mxCell>
                <mxCell id="LPdrhMW7AzziEGGQ__64-8" value="" style="shape=partialRectangle;connectable=0;fillColor=none;top=0;left=0;bottom=0;right=0;align=left;spacingLeft=6;fontStyle=5;overflow=hidden;" parent="LPdrhMW7AzziEGGQ__64-6" vertex="1">
                    <mxGeometry x="30" width="150" height="20" as="geometry">
                        <mxRectangle width="150" height="20" as="alternateBounds"/>
                    </mxGeometry>
                </mxCell>
                <mxCell id="LPdrhMW7AzziEGGQ__64-9" value="" style="shape=partialRectangle;connectable=0;fillColor=none;top=0;left=0;bottom=0;right=0;align=left;spacingLeft=6;fontStyle=5;overflow=hidden;" parent="LPdrhMW7AzziEGGQ__64-6" vertex="1">
                    <mxGeometry x="180" width="60" height="20" as="geometry">
                        <mxRectangle width="60" height="20" as="alternateBounds"/>
                    </mxGeometry>
                </mxCell>
                <mxCell id="LPdrhMW7AzziEGGQ__64-18" value="" style="shape=partialRectangle;collapsible=0;dropTarget=0;pointerEvents=0;fillColor=none;top=0;left=0;bottom=0;right=0;points=[[0,0.5],[1,0.5]];portConstraint=eastwest;" parent="LPdrhMW7AzziEGGQ__64-1" vertex="1">
                    <mxGeometry y="70" width="240" height="30" as="geometry"/>
                </mxCell>
                <mxCell id="LPdrhMW7AzziEGGQ__64-19" value="" style="shape=partialRectangle;connectable=0;fillColor=none;top=0;left=0;bottom=0;right=0;editable=1;overflow=hidden;" parent="LPdrhMW7AzziEGGQ__64-18" vertex="1">
                    <mxGeometry width="30" height="30" as="geometry">
                        <mxRectangle width="30" height="30" as="alternateBounds"/>
                    </mxGeometry>
                </mxCell>
                <mxCell id="LPdrhMW7AzziEGGQ__64-20" value="email" style="shape=partialRectangle;connectable=0;fillColor=none;top=0;left=0;bottom=0;right=0;align=left;spacingLeft=6;overflow=hidden;" parent="LPdrhMW7AzziEGGQ__64-18" vertex="1">
                    <mxGeometry x="30" width="150" height="30" as="geometry">
                        <mxRectangle width="150" height="30" as="alternateBounds"/>
                    </mxGeometry>
                </mxCell>
                <mxCell id="LPdrhMW7AzziEGGQ__64-21" value="char" style="shape=partialRectangle;connectable=0;fillColor=none;top=0;left=0;bottom=0;right=0;align=left;spacingLeft=6;overflow=hidden;" parent="LPdrhMW7AzziEGGQ__64-18" vertex="1">
                    <mxGeometry x="180" width="60" height="30" as="geometry">
                        <mxRectangle width="60" height="30" as="alternateBounds"/>
                    </mxGeometry>
                </mxCell>
                <mxCell id="LPdrhMW7AzziEGGQ__64-50" value="" style="shape=partialRectangle;collapsible=0;dropTarget=0;pointerEvents=0;fillColor=none;top=0;left=0;bottom=0;right=0;points=[[0,0.5],[1,0.5]];portConstraint=eastwest;" parent="LPdrhMW7AzziEGGQ__64-1" vertex="1">
                    <mxGeometry y="100" width="240" height="30" as="geometry"/>
                </mxCell>
                <mxCell id="LPdrhMW7AzziEGGQ__64-51" value="" style="shape=partialRectangle;connectable=0;fillColor=none;top=0;left=0;bottom=0;right=0;editable=1;overflow=hidden;" parent="LPdrhMW7AzziEGGQ__64-50" vertex="1">
                    <mxGeometry width="30" height="30" as="geometry">
                        <mxRectangle width="30" height="30" as="alternateBounds"/>
                    </mxGeometry>
                </mxCell>
                <mxCell id="LPdrhMW7AzziEGGQ__64-52" value="role" style="shape=partialRectangle;connectable=0;fillColor=none;top=0;left=0;bottom=0;right=0;align=left;spacingLeft=6;overflow=hidden;" parent="LPdrhMW7AzziEGGQ__64-50" vertex="1">
                    <mxGeometry x="30" width="150" height="30" as="geometry">
                        <mxRectangle width="150" height="30" as="alternateBounds"/>
                    </mxGeometry>
                </mxCell>
                <mxCell id="LPdrhMW7AzziEGGQ__64-53" value="char" style="shape=partialRectangle;connectable=0;fillColor=none;top=0;left=0;bottom=0;right=0;align=left;spacingLeft=6;overflow=hidden;" parent="LPdrhMW7AzziEGGQ__64-50" vertex="1">
                    <mxGeometry x="180" width="60" height="30" as="geometry">
                        <mxRectangle width="60" height="30" as="alternateBounds"/>
                    </mxGeometry>
                </mxCell>
                <mxCell id="LPdrhMW7AzziEGGQ__64-14" value="" style="shape=partialRectangle;collapsible=0;dropTarget=0;pointerEvents=0;fillColor=none;top=0;left=0;bottom=0;right=0;points=[[0,0.5],[1,0.5]];portConstraint=eastwest;" parent="LPdrhMW7AzziEGGQ__64-1" vertex="1">
                    <mxGeometry y="130" width="240" height="30" as="geometry"/>
                </mxCell>
                <mxCell id="LPdrhMW7AzziEGGQ__64-15" value="" style="shape=partialRectangle;connectable=0;fillColor=none;top=0;left=0;bottom=0;right=0;editable=1;overflow=hidden;" parent="LPdrhMW7AzziEGGQ__64-14" vertex="1">
                    <mxGeometry width="30" height="30" as="geometry">
                        <mxRectangle width="30" height="30" as="alternateBounds"/>
                    </mxGeometry>
                </mxCell>
                <mxCell id="LPdrhMW7AzziEGGQ__64-16" value="first_name" style="shape=partialRectangle;connectable=0;fillColor=none;top=0;left=0;bottom=0;right=0;align=left;spacingLeft=6;overflow=hidden;" parent="LPdrhMW7AzziEGGQ__64-14" vertex="1">
                    <mxGeometry x="30" width="150" height="30" as="geometry">
                        <mxRectangle width="150" height="30" as="alternateBounds"/>
                    </mxGeometry>
                </mxCell>
                <mxCell id="LPdrhMW7AzziEGGQ__64-17" value="char" style="shape=partialRectangle;connectable=0;fillColor=none;top=0;left=0;bottom=0;right=0;align=left;spacingLeft=6;overflow=hidden;" parent="LPdrhMW7AzziEGGQ__64-14" vertex="1">
                    <mxGeometry x="180" width="60" height="30" as="geometry">
                        <mxRectangle width="60" height="30" as="alternateBounds"/>
                    </mxGeometry>
                </mxCell>
                <mxCell id="LPdrhMW7AzziEGGQ__64-71" value="" style="shape=partialRectangle;collapsible=0;dropTarget=0;pointerEvents=0;fillColor=none;top=0;left=0;bottom=0;right=0;points=[[0,0.5],[1,0.5]];portConstraint=eastwest;" parent="LPdrhMW7AzziEGGQ__64-1" vertex="1">
                    <mxGeometry y="160" width="240" height="30" as="geometry"/>
                </mxCell>
                <mxCell id="LPdrhMW7AzziEGGQ__64-72" value="" style="shape=partialRectangle;connectable=0;fillColor=none;top=0;left=0;bottom=0;right=0;editable=1;overflow=hidden;" parent="LPdrhMW7AzziEGGQ__64-71" vertex="1">
                    <mxGeometry width="30" height="30" as="geometry">
                        <mxRectangle width="30" height="30" as="alternateBounds"/>
                    </mxGeometry>
                </mxCell>
                <mxCell id="LPdrhMW7AzziEGGQ__64-73" value="last_name" style="shape=partialRectangle;connectable=0;fillColor=none;top=0;left=0;bottom=0;right=0;align=left;spacingLeft=6;overflow=hidden;" parent="LPdrhMW7AzziEGGQ__64-71" vertex="1">
                    <mxGeometry x="30" width="150" height="30" as="geometry">
                        <mxRectangle width="150" height="30" as="alternateBounds"/>
                    </mxGeometry>
                </mxCell>
                <mxCell id="LPdrhMW7AzziEGGQ__64-74" value="char" style="shape=partialRectangle;connectable=0;fillColor=none;top=0;left=0;bottom=0;right=0;align=left;spacingLeft=6;overflow=hidden;" parent="LPdrhMW7AzziEGGQ__64-71" vertex="1">
                    <mxGeometry x="180" width="60" height="30" as="geometry">
                        <mxRectangle width="60" height="30" as="alternateBounds"/>
                    </mxGeometry>
                </mxCell>
                <mxCell id="LPdrhMW7AzziEGGQ__64-26" value="" style="shape=partialRectangle;collapsible=0;dropTarget=0;pointerEvents=0;fillColor=none;top=0;left=0;bottom=0;right=0;points=[[0,0.5],[1,0.5]];portConstraint=eastwest;" parent="LPdrhMW7AzziEGGQ__64-1" vertex="1">
                    <mxGeometry y="190" width="240" height="30" as="geometry"/>
                </mxCell>
                <mxCell id="LPdrhMW7AzziEGGQ__64-27" value="" style="shape=partialRectangle;connectable=0;fillColor=none;top=0;left=0;bottom=0;right=0;editable=1;overflow=hidden;" parent="LPdrhMW7AzziEGGQ__64-26" vertex="1">
                    <mxGeometry width="30" height="30" as="geometry">
                        <mxRectangle width="30" height="30" as="alternateBounds"/>
                    </mxGeometry>
                </mxCell>
                <mxCell id="LPdrhMW7AzziEGGQ__64-28" value="is_active" style="shape=partialRectangle;connectable=0;fillColor=none;top=0;left=0;bottom=0;right=0;align=left;spacingLeft=6;overflow=hidden;" parent="LPdrhMW7AzziEGGQ__64-26" vertex="1">
                    <mxGeometry x="30" width="150" height="30" as="geometry">
                        <mxRectangle width="150" height="30" as="alternateBounds"/>
                    </mxGeometry>
                </mxCell>
                <mxCell id="LPdrhMW7AzziEGGQ__64-29" value="bool" style="shape=partialRectangle;connectable=0;fillColor=none;top=0;left=0;bottom=0;right=0;align=left;spacingLeft=6;overflow=hidden;" parent="LPdrhMW7AzziEGGQ__64-26" vertex="1">
                    <mxGeometry x="180" width="60" height="30" as="geometry">
                        <mxRectangle width="60" height="30" as="alternateBounds"/>
                    </mxGeometry>
                </mxCell>
                <mxCell id="LPdrhMW7AzziEGGQ__64-30" value="" style="shape=partialRectangle;collapsible=0;dropTarget=0;pointerEvents=0;fillColor=none;top=0;left=0;bottom=0;right=0;points=[[0,0.5],[1,0.5]];portConstraint=eastwest;" parent="LPdrhMW7AzziEGGQ__64-1" vertex="1">
                    <mxGeometry y="220" width="240" height="30" as="geometry"/>
                </mxCell>
                <mxCell id="LPdrhMW7AzziEGGQ__64-31" value="" style="shape=partialRectangle;connectable=0;fillColor=none;top=0;left=0;bottom=0;right=0;editable=1;overflow=hidden;" parent="LPdrhMW7AzziEGGQ__64-30" vertex="1">
                    <mxGeometry width="30" height="30" as="geometry">
                        <mxRectangle width="30" height="30" as="alternateBounds"/>
                    </mxGeometry>
                </mxCell>
                <mxCell id="LPdrhMW7AzziEGGQ__64-32" value="phone_number" style="shape=partialRectangle;connectable=0;fillColor=none;top=0;left=0;bottom=0;right=0;align=left;spacingLeft=6;overflow=hidden;" parent="LPdrhMW7AzziEGGQ__64-30" vertex="1">
                    <mxGeometry x="30" width="150" height="30" as="geometry">
                        <mxRectangle width="150" height="30" as="alternateBounds"/>
                    </mxGeometry>
                </mxCell>
                <mxCell id="LPdrhMW7AzziEGGQ__64-33" value="char" style="shape=partialRectangle;connectable=0;fillColor=none;top=0;left=0;bottom=0;right=0;align=left;spacingLeft=6;overflow=hidden;" parent="LPdrhMW7AzziEGGQ__64-30" vertex="1">
                    <mxGeometry x="180" width="60" height="30" as="geometry">
                        <mxRectangle width="60" height="30" as="alternateBounds"/>
                    </mxGeometry>
                </mxCell>
                <mxCell id="LPdrhMW7AzziEGGQ__64-70" style="edgeStyle=entityRelationEdgeStyle;rounded=0;orthogonalLoop=1;jettySize=auto;html=1;shadow=0;strokeColor=default;align=center;verticalAlign=middle;fontFamily=Helvetica;fontSize=11;fontColor=default;labelBackgroundColor=default;startArrow=ERmandOne;startFill=0;endArrow=ERoneToMany;endFill=0;flowAnimation=1;" parent="1" source="LPdrhMW7AzziEGGQ__64-6" target="2IO1VP2Vq1PEebqT6ruY-266" edge="1">
                    <mxGeometry relative="1" as="geometry">
                        <mxPoint x="-1620" y="-3060" as="sourcePoint"/>
                        <mxPoint x="-1359" y="-3178.6231174271447" as="targetPoint"/>
                    </mxGeometry>
                </mxCell>
                <mxCell id="LPdrhMW7AzziEGGQ__64-83" style="edgeStyle=entityRelationEdgeStyle;rounded=0;orthogonalLoop=1;jettySize=auto;html=1;shadow=0;strokeColor=default;align=center;verticalAlign=middle;fontFamily=Helvetica;fontSize=11;fontColor=default;labelBackgroundColor=default;startArrow=ERmandOne;startFill=0;endArrow=ERmandOne;endFill=0;flowAnimation=1;" parent="1" source="2IO1VP2Vq1PEebqT6ruY-254" target="2IO1VP2Vq1PEebqT6ruY-79" edge="1">
                    <mxGeometry relative="1" as="geometry">
                        <mxPoint x="-1130" y="-2960" as="sourcePoint"/>
                        <mxPoint x="-1110.0000000000002" y="-2989.1401619600792" as="targetPoint"/>
                    </mxGeometry>
                </mxCell>
            </root>
        </mxGraphModel>
    </diagram>
</mxfile>